<svg width="20" height="20" viewBox="0 0 20 20" fill="none" xmlns="http://www.w3.org/2000/svg">
<g id="youtube" clipPath="url(#clip0_855_454)">
<path id="Vector" d="M18.7835 5.3487C18.6845 4.95321 18.4829 4.59084 18.199 4.2982C17.9152 4.00556 17.5591 3.79302 17.1668 3.68203C15.7335 3.33203 10.0001 3.33203 10.0001 3.33203C10.0001 3.33203 4.26682 3.33203 2.83348 3.71536C2.44119 3.82635 2.08513 4.0389 1.80127 4.33154C1.51741 4.62417 1.31581 4.98654 1.21682 5.38203C0.954496 6.83666 0.826181 8.31229 0.833484 9.79036C0.824134 11.2796 0.952457 12.7664 1.21682 14.232C1.32595 14.6152 1.53207 14.9638 1.81527 15.2441C2.09847 15.5244 2.44917 15.7269 2.83348 15.832C4.26682 16.2154 10.0001 16.2154 10.0001 16.2154C10.0001 16.2154 15.7335 16.2154 17.1668 15.832C17.5591 15.721 17.9152 15.5085 18.199 15.2159C18.4829 14.9232 18.6845 14.5609 18.7835 14.1654C19.0438 12.7217 19.1721 11.2573 19.1668 9.79036C19.1762 8.30116 19.0478 6.81428 18.7835 5.3487V5.3487Z" stroke="#272D3D" strokeWidth="2" strokeLinecap="round" strokeLinejoin="round"/>
<path id="Vector_2" d="M8.125 12.5164L12.9167 9.79141L8.125 7.06641V12.5164Z" fill="#272D3D"/>
</g>
<defs>
<clipPath id="clip0_855_454">
<rect width="20" height="20" fill="white"/>
</clipPath>
</defs>
</svg>
