<svg width="13" height="14" viewBox="0 0 13 14" fill="none" xmlns="http://www.w3.org/2000/svg">
<path fill-rule="evenodd" clip-rule="evenodd" d="M12.1 4.19961V11.7996C12.1 12.224 11.9314 12.6309 11.6314 12.931C11.3313 13.231 10.9243 13.3996 10.5 13.3996H9.7V12.5996H10.5C10.7122 12.5996 10.9157 12.5153 11.0657 12.3653C11.2157 12.2153 11.3 12.0118 11.3 11.7996V4.19961H9.7C9.38174 4.19961 9.07652 4.07318 8.85147 3.84814C8.62643 3.62309 8.5 3.31787 8.5 2.99961V1.39961H4.1C3.88783 1.39961 3.68435 1.48389 3.53432 1.63392C3.38429 1.78395 3.3 1.98744 3.3 2.19961V9.39961H2.5V2.19961C2.5 1.77526 2.66857 1.3683 2.96863 1.06824C3.26869 0.76818 3.67566 0.599609 4.1 0.599609L8.5 0.599609L12.1 4.19961ZM2.18 10.0796H0.900002V13.2788H1.5328V12.2052H2.1752C2.4048 12.2052 2.6 12.1596 2.7608 12.0668C2.9232 11.9732 3.0472 11.8468 3.1312 11.6876C3.21839 11.5206 3.26265 11.3344 3.26 11.146C3.26 10.946 3.2176 10.7652 3.1336 10.6044C3.05005 10.4446 2.92231 10.3121 2.7656 10.2228C2.6056 10.1268 2.4112 10.0796 2.18 10.0796ZM2.616 11.146C2.61889 11.2514 2.59552 11.3559 2.548 11.45C2.50537 11.532 2.43902 11.5992 2.3576 11.6428C2.26447 11.6889 2.16146 11.7114 2.0576 11.7084H1.5304V10.5836H2.0584C2.2328 10.5836 2.3696 10.6316 2.468 10.7284C2.5664 10.826 2.616 10.9652 2.616 11.146ZM3.5896 10.0796V13.2788H4.7576C5.0784 13.2788 5.3448 13.2148 5.556 13.0892C5.76973 12.9613 5.93662 12.7681 6.032 12.538C6.136 12.298 6.1888 12.0084 6.1888 11.6708C6.1888 11.3348 6.1368 11.0484 6.032 10.8108C5.93775 10.5834 5.77245 10.3926 5.5608 10.2668C5.3496 10.142 5.0816 10.0796 4.7568 10.0796H3.5896ZM4.2224 10.5956H4.6728C4.8712 10.5956 5.0328 10.6356 5.16 10.7172C5.29203 10.8036 5.39165 10.9313 5.4432 11.0804C5.5064 11.2412 5.5376 11.442 5.5376 11.6828C5.54008 11.8424 5.5218 12.0016 5.4832 12.1564C5.4547 12.2785 5.40132 12.3935 5.3264 12.494C5.2568 12.5837 5.16458 12.6533 5.0592 12.6956C4.93573 12.7418 4.8046 12.7641 4.6728 12.7612H4.2224V10.5956ZM7.2168 12.006V13.2788H6.5848V10.0796H8.6232V10.602H7.2168V11.4956H8.5016V12.006H7.2168Z" fill="#6B7280"/>
</svg>
