<svg width="72" height="72" viewBox="0 0 72 72" fill="none" xmlns="http://www.w3.org/2000/svg">
<g clip-path="url(#clip0_476_11197)">
<rect width="72" height="72" rx="36" fill="#F3F4F6"/>
<path d="M72 62.982V72.003H0V63.015C4.18785 57.4184 9.62372 52.876 15.8754 49.7491C22.127 46.6223 29.022 44.9972 36.012 45.003C50.724 45.003 63.792 52.065 72 62.982ZM48.006 27C48.006 30.1826 46.7417 33.2348 44.4913 35.4853C42.2408 37.7357 39.1886 39 36.006 39C32.8234 39 29.7712 37.7357 27.5207 35.4853C25.2703 33.2348 24.006 30.1826 24.006 27C24.006 23.8174 25.2703 20.7652 27.5207 18.5147C29.7712 16.2643 32.8234 15 36.006 15C39.1886 15 42.2408 16.2643 44.4913 18.5147C46.7417 20.7652 48.006 23.8174 48.006 27Z" fill="#D1D5DB"/>
</g>
<defs>
<clipPath id="clip0_476_11197">
<rect width="72" height="72" rx="36" fill="white"/>
</clipPath>
</defs>
</svg>
