<svg width="21" height="20" viewBox="0 0 21 20" fill="none" xmlns="http://www.w3.org/2000/svg">
<path d="M6.75 6.875H14.25M6.75 9.375H10.5M2.375 10.6328C2.375 11.967 3.31118 13.1284 4.63122 13.3225C5.57164 13.4607 6.5227 13.5663 7.48321 13.6379C7.77504 13.6597 8.04181 13.8127 8.20413 14.0562L10.5 17.5L12.7958 14.0563C12.9582 13.8128 13.2249 13.6597 13.5168 13.638C14.4773 13.5664 15.4283 13.4608 16.3687 13.3226C17.6888 13.1285 18.625 11.9671 18.625 10.6329V5.61713C18.625 4.28288 17.6888 3.12152 16.3687 2.92745C14.4534 2.64584 12.4938 2.5 10.5002 2.5C8.50647 2.5 6.54676 2.64587 4.63122 2.92752C3.31118 3.12161 2.375 4.28297 2.375 5.6172V10.6328Z" stroke="#6B7280" stroke-width="1.5" stroke-linecap="round" stroke-linejoin="round"/>
</svg>
