<svg width="250" height="24" viewBox="0 0 250 24" fill="none" xmlns="http://www.w3.org/2000/svg">
<path d="M32.665 12.2617C34.1116 8.96667 32.1266 7.71667 27.435 7.71667H19.5716C17.8616 7.71667 17.5 7.56667 17.8833 6.71667L18.4433 5.44334C18.7933 4.62501 19.2983 4.46667 21.01 4.45501H31.305C32.7329 4.38314 34.1584 4.63972 35.4716 5.20501L36.4916 0.65834H15.9533C12.305 0.45334 8.91665 2.61167 7.44498 6.08001L5.25165 11.1467C3.54165 14.92 4.76831 16.0467 9.16665 16.0467H18.2016C19.935 16.0467 20.2083 16.2167 19.8466 17.0333L19.155 18.5917C18.7933 19.4417 18.355 19.58 16.6333 19.58H5.93331C4.55877 19.6563 3.18867 19.3658 1.96331 18.7383L0.85498 23.3633H20.8333C26.15 23.3633 28.64 21.3633 30.2083 17.8067L32.665 12.2617ZM86.2716 13.4883C87.8723 13.4415 89.4705 13.6451 91.0083 14.0917L93.2016 9.14834C91.4755 9.5441 89.7092 9.73818 87.9383 9.72667H80.0433L82.4116 4.42001H91.415C93.0303 4.36468 94.6441 4.56837 96.195 5.02334L97.2166 0.636673H72.0716C72.2383 1.53334 72.205 2.37501 71.2616 4.52334L64.6816 19.4083C64.2678 20.4152 63.7225 21.3629 63.06 22.2267C62.4575 21.0846 61.9583 19.891 61.5683 18.66L58.0366 7.29501L65.3733 2.90834C66.8777 1.96264 68.4897 1.20001 70.175 0.636673H60.0433C59.9756 0.926395 59.8876 1.21099 59.78 1.48834C59.44 2.23834 58.9033 2.79501 57.1483 3.94334L46.535 10.76L49.3416 4.56834C49.9 3.06834 50.785 1.72167 51.93 0.635006H39.0233C39.2 1.53501 39.1783 2.36334 38.2233 4.52334L31.645 19.4083C31.0824 20.9056 30.1904 22.2573 29.035 23.3633H41.9183C41.7766 22.4433 41.7866 21.6017 42.7183 19.455L44.2316 16.045L47.8833 13.7733L50.0766 23.3867H87.6433L90.57 19.0233C88.8533 19.44 87.0933 19.64 85.3283 19.625H75.6583L78.355 13.5333L86.2716 13.4883ZM119.44 17.8417C116.84 18.4067 114.19 18.6883 111.535 18.6817H106.35C105.253 18.6817 104.882 18.365 105.308 17.25C105.737 16.1367 110.013 6.60167 110.013 6.60167C110.184 6.20232 110.473 5.86499 110.841 5.63543C111.21 5.40586 111.64 5.29516 112.073 5.31834H120.21C121.52 5.33376 122.818 5.57217 124.048 6.02334L125.342 0.806673H125.275V0.670006H107.883C103.137 0.636673 99.78 2.44334 97.5883 7.34167L93.465 16.6817C91.2716 21.545 93.1683 23.3417 97.8516 23.3417H115.745L119.44 17.8417ZM151.097 19.42L157.675 4.54501C158.238 3.06128 159.13 1.72484 160.285 0.636673H147.402C147.555 1.52334 147.543 2.36334 146.59 4.51167L144.32 9.72834H136.042L138.345 4.54501C138.912 3.04501 139.813 1.70667 140.977 0.636673H128.082C128.235 1.52334 128.223 2.36334 127.248 4.51167L120.667 19.3983C120.102 20.9002 119.206 22.2559 118.047 23.365H130.952C130.798 22.465 130.81 21.615 131.775 19.465L134.407 13.5117H142.652L140.033 19.4667C139.457 20.9458 138.558 22.2772 137.4 23.3633H150.285C150.132 22.42 150.143 21.58 151.097 19.42ZM174.342 19.5567H164.737L167.412 13.4667H175.307C176.904 13.4195 178.499 13.6219 180.033 14.0667L182.227 9.12501C180.51 9.53411 178.75 9.73279 176.985 9.71667H169.057L171.415 4.40834H180.438C182.054 4.35393 183.668 4.5576 185.22 5.01167L186.238 0.636673H161.107C161.262 1.53334 161.24 2.36334 160.285 4.52334L153.707 19.3983C153.121 20.8759 152.223 22.2092 151.073 23.3067H176.645L179.572 18.9317C177.863 19.3665 176.105 19.5766 174.342 19.5567ZM210.12 13.4667C212.543 13.33 214.715 13.1483 216.185 9.83001L218.015 5.64667C219.693 1.85167 217.773 0.636673 212.72 0.636673H188.827C189.255 1.54501 189.243 2.37501 188.278 4.53334L181.7 19.4083C181.136 20.8976 180.235 22.2359 179.067 23.3183H191.952C191.81 22.4083 191.82 21.5683 192.763 19.42L195.383 13.4667H198.793L199.703 23.3167H212.095C211.577 22.2276 211.283 21.0462 211.228 19.8417L210.12 13.4667ZM206.93 5.67001L205.723 8.44334C205.24 9.58001 204.758 9.71667 203.323 9.71667H197.073L199.44 4.40834H205.668C207.095 4.40834 207.435 4.56834 206.93 5.67001ZM230.668 5.38667C231.042 4.56834 231.523 4.39834 233.257 4.39834H243.553C244.977 4.33774 246.396 4.5939 247.708 5.14834L249.145 0.601673H228.178C224.543 0.395006 221.162 2.53834 219.682 5.98834L217.488 11.0567C215.788 14.84 217.018 15.9667 221.415 15.9667H230.448C232.16 15.9667 232.467 16.1367 232.083 16.9667L231.36 18.5667C230.998 19.4083 230.57 19.545 228.815 19.545H218.202C216.824 19.6114 215.452 19.3178 214.222 18.6933L213.125 23.3067H233.082C238.398 23.3067 240.898 21.295 242.478 17.75L244.923 12.2167C246.37 8.90834 244.397 7.67001 239.672 7.67001H231.822C230.088 7.67001 229.738 7.53334 230.122 6.68167L230.668 5.38667ZM242.917 19.955C243.825 19.955 244.562 20.7183 244.562 21.6583C244.562 22.6 243.825 23.3633 242.917 23.3633C242.008 23.3633 241.272 22.6 241.272 21.6583C241.272 20.7183 242.008 19.955 242.917 19.955ZM242.917 20.2833C242.747 20.2885 242.581 20.3279 242.427 20.3993C242.274 20.4706 242.136 20.5723 242.023 20.6983C241.789 20.9581 241.665 21.2989 241.678 21.6483C241.655 21.8859 241.698 22.1253 241.801 22.3405C241.904 22.5558 242.064 22.7389 242.263 22.87C242.46 22.9967 242.688 23.0641 242.922 23.0641C243.155 23.0641 243.384 22.9967 243.58 22.87C243.78 22.7391 243.94 22.5561 244.043 22.3408C244.147 22.1255 244.189 21.8861 244.167 21.6483C244.176 21.2981 244.05 20.9577 243.815 20.6983C243.701 20.5723 243.562 20.4705 243.408 20.3992C243.254 20.3279 243.087 20.2885 242.917 20.2833ZM242.632 22.625H242.248V20.7267C242.44 20.6917 242.633 20.6717 242.828 20.67C243.047 20.6541 243.265 20.7059 243.453 20.8183C243.57 20.9183 243.632 21.0717 243.62 21.2267C243.619 21.3291 243.584 21.4283 243.52 21.5085C243.456 21.5888 243.368 21.6456 243.268 21.67C243.432 21.67 243.53 21.8533 243.563 22.125C243.568 22.2853 243.602 22.4434 243.663 22.5917H243.257C243.198 22.4342 243.161 22.2693 243.147 22.1017C243.147 21.8983 243.005 21.8183 242.807 21.8183H242.632V22.625ZM242.632 21.545H242.818C243.037 21.545 243.213 21.4667 243.213 21.2733C243.213 21.08 243.103 21 242.852 21H242.632V21.545Z" fill="#0063BA"/>
</svg>
