<svg width="20" height="21" viewBox="0 0 20 21" fill="none" xmlns="http://www.w3.org/2000/svg">
<path d="M10 4.5V16.5M7 13.6818L7.87887 14.341C9.0504 15.2197 10.9498 15.2197 12.1214 14.341C13.2929 13.4623 13.2929 12.0377 12.1214 11.159C11.5355 10.7196 10.7677 10.5 9.99989 10.5C9.27496 10.5 8.5502 10.2804 7.99709 9.84102C6.891 8.96234 6.891 7.53772 7.9971 6.65904C9.10319 5.78036 10.8965 5.78036 12.0026 6.65904L12.4175 6.98863M19 10.5C19 15.4706 14.9706 19.5 10 19.5C5.02944 19.5 1 15.4706 1 10.5C1 5.52944 5.02944 1.5 10 1.5C14.9706 1.5 19 5.52944 19 10.5Z" stroke="white" stroke-width="1.5" stroke-linecap="round" stroke-linejoin="round"/>
</svg>
