<svg width="22" height="19" viewBox="0 0 22 19" fill="none" xmlns="http://www.w3.org/2000/svg">
<path d="M16 17.5H21V15.5C21 13.8431 19.6569 12.5 18 12.5C17.0444 12.5 16.1931 12.9468 15.6438 13.6429M16 17.5H6M16 17.5V15.5C16 14.8438 15.8736 14.217 15.6438 13.6429M6 17.5H1V15.5C1 13.8431 2.34315 12.5 4 12.5C4.95561 12.5 5.80686 12.9468 6.35625 13.6429M6 17.5V15.5C6 14.8438 6.12642 14.217 6.35625 13.6429M6.35625 13.6429C7.0935 11.801 8.89482 10.5 11 10.5C13.1052 10.5 14.9065 11.801 15.6438 13.6429M14 4.5C14 6.15685 12.6569 7.5 11 7.5C9.34315 7.5 8 6.15685 8 4.5C8 2.84315 9.34315 1.5 11 1.5C12.6569 1.5 14 2.84315 14 4.5ZM20 7.5C20 8.60457 19.1046 9.5 18 9.5C16.8954 9.5 16 8.60457 16 7.5C16 6.39543 16.8954 5.5 18 5.5C19.1046 5.5 20 6.39543 20 7.5ZM6 7.5C6 8.60457 5.10457 9.5 4 9.5C2.89543 9.5 2 8.60457 2 7.5C2 6.39543 2.89543 5.5 4 5.5C5.10457 5.5 6 6.39543 6 7.5Z" stroke="white" stroke-width="2" stroke-linecap="round" stroke-linejoin="round"/>
</svg>
